<?xml version="1.0" encoding="UTF-8" standalone="no"?>
<!-- Created with Inkscape (http://www.inkscape.org/) -->

<svg
   xmlns:dc="http://purl.org/dc/elements/1.1/"
   xmlns:cc="http://creativecommons.org/ns#"
   xmlns:rdf="http://www.w3.org/1999/02/22-rdf-syntax-ns#"
   xmlns:svg="http://www.w3.org/2000/svg"
   xmlns="http://www.w3.org/2000/svg"
   xmlns:sodipodi="http://sodipodi.sourceforge.net/DTD/sodipodi-0.dtd"
   xmlns:inkscape="http://www.inkscape.org/namespaces/inkscape"
   width="210mm"
   height="297mm"
   viewBox="0 0 744.09448819 1052.3622047"
   id="svg2"
   version="1.1"
   inkscape:version="0.91 r13725"
   sodipodi:docname="0123.svg">
  <defs
     id="defs4" />
  <sodipodi:namedview
     id="base"
     pagecolor="#ffffff"
     bordercolor="#666666"
     borderopacity="1.0"
     inkscape:pageopacity="0.0"
     inkscape:pageshadow="2"
     inkscape:zoom="5.9361203"
     inkscape:cx="201.79408"
     inkscape:cy="946.42857"
     inkscape:document-units="px"
     inkscape:current-layer="layer1"
     showgrid="false"
     inkscape:window-width="1680"
     inkscape:window-height="1005"
     inkscape:window-x="0"
     inkscape:window-y="1"
     inkscape:window-maximized="1" />
  <metadata
     id="metadata7">
    <rdf:RDF>
      <cc:Work
         rdf:about="">
        <dc:format>image/svg+xml</dc:format>
        <dc:type
           rdf:resource="http://purl.org/dc/dcmitype/StillImage" />
      </cc:Work>
    </rdf:RDF>
  </metadata>
  <g
     inkscape:label="Layer 1"
     inkscape:groupmode="layer"
     id="layer1">
    <g
       style="font-style:normal;font-variant:normal;font-weight:normal;font-stretch:normal;font-size:40px;line-height:125%;font-family:Manaspace;-inkscape-font-specification:Manaspace;letter-spacing:0px;word-spacing:0px;fill:#000000;fill-opacity:1;stroke:none;stroke-width:1px;stroke-linecap:butt;stroke-linejoin:miter;stroke-opacity:1"
       id="text3336">
      <path
         d="m 78.571426,94.273476 0,23.320314 6.660157,0 0,-23.320314 -6.660157,0 z m 10,-3.339844 0,3.339844 3.339844,0.07813 0,23.242189 -3.339844,0 0,3.33984 -13.339843,0 0,-3.33984 -3.320313,0 0,-23.320314 3.320313,0 0,-3.339844 13.339843,0 z"
         style=""
         id="path3369" />
      <path
         d="m 111.87221,90.933632 0,26.660158 3.33984,0 0,3.33984 -13.33984,0 0,-3.33984 3.33984,0 0,-20.000002 -3.33984,0 0,-3.320312 3.33984,0 0,-3.339844 6.66016,0 z"
         style=""
         id="path3371" />
      <path
         d="m 125.19252,104.27348 0,-10.000004 3.32031,0 0,-3.339844 13.33985,0 0,3.339844 3.33984,0 0,13.320314 -3.33984,0 0,3.33984 -3.33985,0 0,3.33985 -3.32031,0 0,3.32031 10,0 0,3.33984 -20,0 0,-3.33984 3.32031,0 0,-3.32031 3.33985,0 0,-3.33985 3.33984,0 0,-3.33984 3.32031,0 0,-13.320314 -6.66015,0 0,10.000004 -6.66016,0 z"
         style=""
         id="path3373" />
      <path
         d="m 151.83315,110.93363 6.66015,0 0,6.66016 6.66016,0 0,-10 -3.32031,0 0,-3.32031 3.32031,0 0,-10.000004 -6.66016,0 0,6.660154 -6.66015,0 0,-6.660154 3.32031,0 0,-3.339844 13.33984,0 0,3.339844 3.33985,0 0,10.000004 -3.33985,0 0,3.32031 3.33985,0 0,10 -3.33985,0 0,3.33984 -13.33984,0 0,-3.33984 -3.32031,0 0,-6.66016 z"
         style=""
         id="path3375" />
      <path
         d="m 185.13393,97.593788 0,10.000002 3.33984,0 0,-10.000002 -3.33984,0 z m 3.33984,-6.660156 0,6.660156 3.32031,0 0,-3.320312 3.33985,0 0,13.320314 3.33984,0 0,3.33984 -3.33984,0 0,10 -6.66016,0 0,-10 -10,0 0,-13.339842 3.32031,0 0,-6.660156 6.67969,0 z"
         style=""
         id="path3377" />
      <path
         d="m 205.1144,114.27348 6.66015,0 0,3.32031 6.66016,0 0,-13.32031 -6.66016,0 0,3.32031 -6.66015,0 0,-16.660158 20,0 0,3.339844 -13.33985,0 0,6.660154 10,0 0,3.33985 3.33985,0.19531 0,13.125 -3.33985,0 0,3.33984 -13.33984,0 0,-3.33984 -3.32031,0 0,-3.32031 z"
         style=""
         id="path3379" />
      <path
         d="m 238.41518,107.59379 0,10 6.66015,0 0,-10 -6.66015,0 z m 10,-16.660158 0,3.339844 3.33984,0 0,6.660154 -6.67969,0 0,-6.660154 -6.66015,0 0,10.000004 10,0 0,3.32031 3.33984,0 0,10 -3.33984,0 0,3.33984 -13.33985,0 0,-3.33984 -3.32031,0 0,-23.320314 3.32031,0 0,-3.339844 13.33985,0 z"
         style=""
         id="path3381" />
      <path
         d="m 278.39565,90.933632 0,9.999998 -3.33985,0 0,10 -3.33984,0 0,10 -6.66016,0 0,-10 3.33985,0 0,-10 3.32031,0 0,-6.660154 -6.66016,0 0,6.660154 -6.66015,0 0,-9.999998 20,0 z"
         style=""
         id="path3383" />
      <path
         d="m 291.69643,107.59379 0,10 6.66015,0 0,-10 -6.66015,0 z m 0,-13.320314 0,10.000004 6.66015,0 0,-10.000004 -6.66015,0 z m 10,-3.339844 0,3.339844 3.33984,0 0,10.000004 -3.33984,0 0,3.32031 3.33984,0 0,10 -3.33984,0 0,3.33984 -13.33985,0 0,-3.33984 -3.32031,0 0,-10 3.32031,0 0,-3.32031 -3.32031,0 0,-10.000004 3.32031,0 0,-3.339844 13.33985,0 z"
         style=""
         id="path3385" />
      <path
         d="m 318.33705,94.273476 0,10.000004 6.66016,0 0,-10.000004 -6.66016,0 z m -6.66015,16.660154 6.66015,0 0,6.66016 6.66016,0 0,-10 -10,0 0,-3.32031 -3.32031,0 0,-10.000004 3.32031,0 0,-3.339844 13.33984,0 0,3.339844 3.33985,0 0,23.320314 -3.33985,0 0,3.33984 -13.33984,0 0,-3.33984 -3.32031,0 0,-6.66016 z"
         style=""
         id="path3387" />
    </g>
  </g>
</svg>
