<?xml version="1.0" encoding="utf-8"?>
<!-- Generator: Adobe Illustrator 15.1.0, SVG Export Plug-In . SVG Version: 6.00 Build 0)  -->
<!DOCTYPE svg PUBLIC "-//W3C//DTD SVG 1.1//EN" "http://www.w3.org/Graphics/SVG/1.1/DTD/svg11.dtd">
<svg version="1.1" id="Ebene_1" xmlns="http://www.w3.org/2000/svg" xmlns:xlink="http://www.w3.org/1999/xlink" x="0px" y="0px"
	 width="1190.55px" height="841.891px" viewBox="0 0 1190.55 841.891" enable-background="new 0 0 1190.55 841.891"
	 xml:space="preserve">
<g>
	<path fill="#282726" d="M682.144,345.412c-8.417-6.512-14.072-11.268-20.604-2.873c-8.309,10.677-22.906,14.018-67.13-4.386
		c-49.495-20.602-85.078,0.982-97.188,29.756c-4.123,9.796,2.719,11.56,12.545,15.67c2.439,1.021,4.568,1.754,7.031,2.526
		c6.544,1.824,12.905,4.056,16.005-3.31c6.317-15.007,24.228-18.511,46.744-9.14c25.111,10.449,43.424,15.383,59.377,15.996
		c22.417,0.865,40.282-7.055,53.104-23.531C698.56,357.727,690.563,351.925,682.144,345.412 M623.97,486.369
		c10.263,0,18.582-0.437,18.582-10.668v-60.334c0-10.23-8.319-10.668-18.582-10.668c-10.262,0-18.581,0.438-18.581,10.668v60.334
		C605.389,485.933,613.708,486.369,623.97,486.369 M527.322,418.354c-11.485,15.141-17.555,33.199-17.555,52.224
		c0,47.774,38.983,86.644,86.9,86.644c27.352,0,53.435-13.079,69.772-34.985c6.124-8.211-2.896-13.561-11.131-19.666
		c-8.233-6.104-12.568-10.654-18.691-2.443c-9.5,12.736-24.061,20.04-39.95,20.04c-27.425,0-49.736-22.246-49.736-49.589
		c0-21.759,14.583-41.302,35.464-47.523c9.833-2.928,7.642-11.991,4.703-21.795c-2.939-9.803-5.509-16.634-15.344-13.705
		C554.2,392.784,538.42,403.723,527.322,418.354"/>
</g>
</svg>
