<?xml version="1.0" encoding="UTF-8" standalone="no"?>
<!-- Created with Inkscape (http://www.inkscape.org/) -->

<svg
   xmlns:dc="http://purl.org/dc/elements/1.1/"
   xmlns:cc="http://creativecommons.org/ns#"
   xmlns:rdf="http://www.w3.org/1999/02/22-rdf-syntax-ns#"
   xmlns:svg="http://www.w3.org/2000/svg"
   xmlns="http://www.w3.org/2000/svg"
   xmlns:sodipodi="http://sodipodi.sourceforge.net/DTD/sodipodi-0.dtd"
   xmlns:inkscape="http://www.inkscape.org/namespaces/inkscape"
   width="210mm"
   height="297mm"
   viewBox="0 0 744.09448819 1052.3622047"
   id="svg2"
   version="1.1"
   inkscape:version="0.91 r13725"
   sodipodi:docname="yannick.svg">
  <defs
     id="defs4" />
  <sodipodi:namedview
     id="base"
     pagecolor="#ffffff"
     bordercolor="#666666"
     borderopacity="1.0"
     inkscape:pageopacity="0.0"
     inkscape:pageshadow="2"
     inkscape:zoom="21.557153"
     inkscape:cx="135.66039"
     inkscape:cy="820.84821"
     inkscape:document-units="px"
     inkscape:current-layer="layer1"
     showgrid="false"
     inkscape:window-width="1680"
     inkscape:window-height="1005"
     inkscape:window-x="0"
     inkscape:window-y="1"
     inkscape:window-maximized="1" />
  <metadata
     id="metadata7">
    <rdf:RDF>
      <cc:Work
         rdf:about="">
        <dc:format>image/svg+xml</dc:format>
        <dc:type
           rdf:resource="http://purl.org/dc/dcmitype/StillImage" />
        <dc:title></dc:title>
      </cc:Work>
    </rdf:RDF>
  </metadata>
  <g
     inkscape:label="Layer 1"
     inkscape:groupmode="layer"
     id="layer1">
    <g
       style="font-style:normal;font-weight:normal;font-size:15px;line-height:125%;font-family:sans-serif;letter-spacing:0px;word-spacing:0px;fill:#000000;fill-opacity:1;stroke:none;stroke-width:1px;stroke-linecap:butt;stroke-linejoin:miter;stroke-opacity:1"
       id="text3336">
      <path
         d="m 107.5,243.76149 -5.73,0 0,-3.855 3.75,0 0,-1.77 -3.75,0 0,-1.89 -1.875,0 0,-11.355 3.855,0 0,9.375 1.77,0 0,-9.375 3.855,0 0,16.995 -1.875,0 0,1.875 z m -7.5,-3.81 1.77,0 0,3.81 -1.77,0 0,-3.81 z m -0.105,-3.705 1.875,0 0,1.89 -1.875,0 0,-1.89 z m 7.605,5.64 1.875,0 0,1.815 -1.875,0 0,-1.815 z"
         style="font-style:normal;font-variant:normal;font-weight:normal;font-stretch:normal;font-family:'FFF Forward';-inkscape-font-specification:'FFF Forward'"
         id="path3341" />
      <path
         d="m 115.0293,232.49649 0,1.77 1.77,0 0,-1.77 -1.77,0 z m -3.855,5.64 0,-7.62 5.625,0 0,-1.77 -5.625,0 0,-3.855 9.48,0 0,13.245 -9.48,0 z"
         style="font-style:normal;font-variant:normal;font-weight:normal;font-stretch:normal;font-family:'FFF Forward';-inkscape-font-specification:'FFF Forward'"
         id="path3343" />
      <path
         d="m 126.30859,238.13649 -3.855,0 0,-13.245 7.605,0 0,1.875 1.875,0 0,11.37 -3.855,0 0,-9.39 -1.77,0 0,9.39 z m 3.75,-13.245 1.875,0 0,1.875 -1.875,0 0,-1.875 z"
         style="font-style:normal;font-variant:normal;font-weight:normal;font-stretch:normal;font-family:'FFF Forward';-inkscape-font-specification:'FFF Forward'"
         id="path3345" />
      <path
         d="m 137.58789,238.13649 -3.855,0 0,-13.245 7.605,0 0,1.875 1.875,0 0,11.37 -3.855,0 0,-9.39 -1.77,0 0,9.39 z m 3.75,-13.245 1.875,0 0,1.875 -1.875,0 0,-1.875 z"
         style="font-style:normal;font-variant:normal;font-weight:normal;font-stretch:normal;font-family:'FFF Forward';-inkscape-font-specification:'FFF Forward'"
         id="path3347" />
      <path
         d="m 148.86719,223.12149 -3.855,0 0,-3.855 3.855,0 0,3.855 z m 0,15.015 -3.855,0 0,-13.245 3.855,0 0,13.245 z"
         style="font-style:normal;font-variant:normal;font-weight:normal;font-stretch:normal;font-family:'FFF Forward';-inkscape-font-specification:'FFF Forward'"
         id="path3349" />
      <path
         d="m 152.54148,238.13649 0,-1.89 -1.875,0 0,-9.48 1.875,0 0,-1.875 5.73,0 0,1.875 1.875,0 0,3.855 -3.855,0 0,-1.875 -1.77,0 0,5.52 1.77,0 0,-1.875 3.855,0 0,3.855 -1.875,0 0,1.89 -5.73,0 z m -1.77,-13.185 1.875,0 0,1.875 -1.875,0 0,-1.875 z m 7.5,0 1.875,0 0,1.815 -1.875,0 0,-1.815 z m 0,11.295 1.875,0 0,1.83 -1.875,0 0,-1.83 z m -7.605,0 1.875,0 0,1.89 -1.875,0 0,-1.89 z"
         style="font-style:normal;font-variant:normal;font-weight:normal;font-stretch:normal;font-family:'FFF Forward';-inkscape-font-specification:'FFF Forward'"
         id="path3351" />
      <path
         d="m 171.42578,238.13649 -3.855,0 0,-5.64 -1.77,0 0,5.64 -3.855,0 0,-18.87 3.855,0 0,9.375 1.77,0 0,-3.75 3.855,0 0,3.855 -1.875,0 0,3.645 1.875,0 0,5.745 z m -1.875,-7.56 1.875,0 0,1.815 -1.875,0 0,-1.815 z"
         style="font-style:normal;font-variant:normal;font-weight:normal;font-stretch:normal;font-family:'FFF Forward';-inkscape-font-specification:'FFF Forward'"
         id="path3353" />
    </g>
  </g>
</svg>
