<?xml version="1.0" encoding="UTF-8" standalone="no"?>
<!-- Created with Inkscape (http://www.inkscape.org/) -->

<svg
   xmlns:dc="http://purl.org/dc/elements/1.1/"
   xmlns:cc="http://creativecommons.org/ns#"
   xmlns:rdf="http://www.w3.org/1999/02/22-rdf-syntax-ns#"
   xmlns:svg="http://www.w3.org/2000/svg"
   xmlns="http://www.w3.org/2000/svg"
   xmlns:sodipodi="http://sodipodi.sourceforge.net/DTD/sodipodi-0.dtd"
   xmlns:inkscape="http://www.inkscape.org/namespaces/inkscape"
   width="210mm"
   height="297mm"
   viewBox="0 0 744.09448819 1052.3622047"
   id="svg2"
   version="1.1"
   inkscape:version="0.91 r13725"
   sodipodi:docname="yannick2.svg">
  <defs
     id="defs4" />
  <sodipodi:namedview
     id="base"
     pagecolor="#ffffff"
     bordercolor="#666666"
     borderopacity="1.0"
     inkscape:pageopacity="0.0"
     inkscape:pageshadow="2"
     inkscape:zoom="26.707396"
     inkscape:cx="104.61251"
     inkscape:cy="840.1316"
     inkscape:document-units="px"
     inkscape:current-layer="layer1"
     showgrid="false"
     inkscape:window-width="1680"
     inkscape:window-height="1005"
     inkscape:window-x="0"
     inkscape:window-y="1"
     inkscape:window-maximized="1" />
  <metadata
     id="metadata7">
    <rdf:RDF>
      <cc:Work
         rdf:about="">
        <dc:format>image/svg+xml</dc:format>
        <dc:type
           rdf:resource="http://purl.org/dc/dcmitype/StillImage" />
        <dc:title></dc:title>
      </cc:Work>
    </rdf:RDF>
  </metadata>
  <g
     inkscape:label="Layer 1"
     inkscape:groupmode="layer"
     id="layer1">
    <text
       xml:space="preserve"
       style="font-style:normal;font-weight:normal;font-size:15px;line-height:125%;font-family:sans-serif;letter-spacing:0px;word-spacing:0px;fill:#000000;fill-opacity:1;stroke:none;stroke-width:1px;stroke-linecap:butt;stroke-linejoin:miter;stroke-opacity:1"
       x="102.85714"
       y="258.07648"
       id="text3336"
       sodipodi:linespacing="125%"><tspan
         sodipodi:role="line"
         id="tspan3338"
         x="102.85714"
         y="258.07648"
         style="font-style:normal;font-variant:normal;font-weight:normal;font-stretch:normal;font-family:Manaspace;-inkscape-font-specification:Manaspace" /></text>
    <g
       style="font-style:normal;font-weight:normal;font-size:15px;line-height:125%;font-family:sans-serif;letter-spacing:0px;word-spacing:0px;fill:#000000;fill-opacity:1;stroke:none;stroke-width:1px;stroke-linecap:butt;stroke-linejoin:miter;stroke-opacity:1"
       id="text3340">
      <path
         d="m 76.549767,208.86879 2.497558,0 0,6.24756 3.75,0 0,-6.24756 1.252442,0 0,9.99756 -1.252442,0 0,1.25244 -5.002441,0 0,-1.25244 5.002441,0 0,-2.49756 -5.002441,0 0,-1.25244 -1.245117,-0.0732 0,-6.17432 z"
         style="font-style:normal;font-variant:normal;font-weight:normal;font-stretch:normal;font-family:Manaspace;-inkscape-font-specification:Manaspace"
         id="path3396" />
      <path
         d="m 89.03756,210.12123 0,4.99512 2.497558,0 0,-1.24512 1.252442,0 0,-3.75 -3.75,0 z m 0,-1.25244 3.75,0 0,1.25244 1.252441,0 0,6.24756 -1.252441,0 0,-1.25244 -1.252442,0 0,1.25244 -3.75,0 0,-1.25244 -1.245117,0 0,-3.75 1.245117,0 0,-1.24512 1.252442,0 0,-1.25244 z"
         style="font-style:normal;font-variant:normal;font-weight:normal;font-stretch:normal;font-family:Manaspace;-inkscape-font-specification:Manaspace"
         id="path3398" />
      <path
         d="m 96.530235,208.86879 6.247555,0 0,1.25244 1.25245,0 0,6.24756 -1.25245,0 0,-6.24756 -3.749996,0 0,6.24756 -2.497559,0 0,-7.5 z"
         style="font-style:normal;font-variant:normal;font-weight:normal;font-stretch:normal;font-family:Manaspace;-inkscape-font-specification:Manaspace"
         id="path3400" />
      <path
         d="m 106.52047,208.86879 6.24756,0 0,1.25244 1.25244,0 0,6.24756 -1.25244,0 0,-6.24756 -3.75,0 0,6.24756 -2.49756,0 0,-7.5 z"
         style="font-style:normal;font-variant:normal;font-weight:normal;font-stretch:normal;font-family:Manaspace;-inkscape-font-specification:Manaspace"
         id="path3402" />
      <path
         d="m 119.00826,208.86879 2.49756,0 0,7.5 -2.49756,0 0,-7.5 z m 2.49756,-3.75 0,2.49756 -2.49756,0 0,-2.49756 2.49756,0 z"
         style="font-style:normal;font-variant:normal;font-weight:normal;font-stretch:normal;font-family:Manaspace;-inkscape-font-specification:Manaspace"
         id="path3404" />
      <path
         d="m 127.74606,208.86879 6.25488,0 0,1.25244 -5.00244,0 0,4.99512 5.00244,0 0,1.25244 -6.25488,0 0,-1.25244 -1.24512,0 0,-4.99512 1.24512,0 0,-1.25244 z"
         style="font-style:normal;font-variant:normal;font-weight:normal;font-stretch:normal;font-family:Manaspace;-inkscape-font-specification:Manaspace"
         id="path3406" />
      <path
         d="m 138.98873,205.11879 0,6.24756 1.25244,0 0,-1.24512 1.24512,0 0,-1.25244 2.50488,0 0,1.25244 -1.25244,0 0,1.24512 -1.25244,0 0,1.25244 1.25244,0 0,1.25244 1.25244,0 0,2.49756 -1.25244,0 0,-1.25244 -1.25244,0 0,-1.24512 -1.24512,0 0,-1.25244 -1.25244,0 0,3.75 -2.49756,0 0,-11.25 2.49756,0 z"
         style="font-style:normal;font-variant:normal;font-weight:normal;font-stretch:normal;font-family:Manaspace;-inkscape-font-specification:Manaspace"
         id="path3408" />
    </g>
  </g>
</svg>
